<?xml version="1.0" encoding="utf-8"?>
<!-- Generator: Adobe Illustrator 22.0.1, SVG Export Plug-In . SVG Version: 6.00 Build 0)  -->
<svg version="1.1" id="레이어_1" xmlns="http://www.w3.org/2000/svg" xmlns:xlink="http://www.w3.org/1999/xlink" x="0px"
	 y="0px" viewBox="0 0 90.9 107.4" style="enable-background:new 0 0 90.9 107.4;" xml:space="preserve">
<style type="text/css">
	.st0{fill:#FF6A3F;}
</style>
<title>자산 4</title>
<g id="레이어_2_1_">
	<g id="레이어_1-2">
		<path class="st0" d="M90.4-2.5c0.2,0.2,0.3,0.3,0.5,0.5"/>
		<path class="st0" d="M35,6.1C15.8,6,0.1,21.5,0,40.7c0,19.4,15.7,35,35,35s35-15.7,35-35C70,21.5,54.3,6,35,6.1z M26.5,49.1
			c0.6,0.6,0.6,1.5,0,2.1c0,0,0,0,0,0c-0.3,0.3-0.7,0.4-1.1,0.4c-0.4,0-0.8-0.2-1.1-0.4l-8.5-8.4c-0.3-0.3-0.4-0.7-0.4-1.1
			c0-0.4,0.2-0.8,0.4-1.1l8.5-8.4c0.6-0.6,1.6-0.6,2.1,0c0.6,0.6,0.6,1.5,0,2.1c0,0,0,0,0,0l-7.4,7.3L26.5,49.1z M31.2,55.4
			c-0.2,0.6-0.8,1-1.4,1c-0.2,0-0.4,0-0.6-0.1c-0.8-0.3-1.2-1.1-0.9-1.9c0,0,0-0.1,0-0.1L39.6,26c0.3-0.8,1.2-1.2,2-0.9
			c0.8,0.3,1.2,1.2,0.9,1.9c0,0,0,0,0,0.1 M54.2,42.9l-8.5,8.4c-0.3,0.3-0.7,0.4-1.1,0.4c-0.4,0-0.8-0.2-1.1-0.4
			c-0.6-0.6-0.6-1.5,0-2.1c0,0,0,0,0,0l7.4-7.3l-7.4-7.3c-0.6-0.6-0.6-1.5,0-2.1c0,0,0,0,0,0c0.6-0.6,1.6-0.6,2.2,0l8.5,8.4
			c0.3,0.3,0.5,0.7,0.5,1.1C54.7,42.2,54.5,42.6,54.2,42.9z"/>
		<path class="st0" d="M90.4,102.3c-0.1,0.1-0.1,0.2-0.2,0.3v0.1c-0.4,0.7-0.7,1.4-0.7,2.2"/>
	</g>
</g>
</svg>
