<svg xmlns="http://www.w3.org/2000/svg" viewBox="0 0 512 512"><defs><style>.cls-1{fill:#fff;}.cls-2{fill:none;}</style></defs><title>자산 1</title><g id="레이어_2" data-name="레이어 2"><g id="레이어_1-2" data-name="레이어 1"><g id="레이어_2-2" data-name="레이어 2"><g id="Layer_1" data-name="Layer 1"><circle id="ellipse" class="cls-1" cx="256" cy="256" r="256"/><path id="logo" class="cls-2" d="M377.4,168.75s-33.3-26.1-72.7-29.1l-3.5,7.1c35.6,8.7,51.9,21.2,69,36.5-29.4-15-58.5-29.1-109.1-29.1s-79.7,14.1-109.1,29.1c17.1-15.3,36.5-29.2,69-36.5l-3.5-7.1c-41.3,3.9-72.7,29.1-72.7,29.1s-37.2,54-43.6,160c37.5,43.3,94.5,43.6,94.5,43.6l11.9-15.9a145.14,145.14,0,0,1-62.8-42.3c23.5,17.8,59.1,36.4,116.4,36.4s92.8-18.5,116.4-36.4a145.14,145.14,0,0,1-62.8,42.3l11.9,15.9s57-.3,94.5-43.6C414.6,222.75,377.4,168.75,377.4,168.75ZM213.7,299.65c-14.1,0-25.5-13-25.5-29.1s11.4-29.1,25.5-29.1,25.5,13,25.5,29.1S227.8,299.65,213.7,299.65Zm94.6,0c-14.1,0-25.5-13-25.5-29.1s11.4-29.1,25.5-29.1,25.5,13,25.5,29.1S322.3,299.65,308.3,299.65Z"/></g></g></g></g></svg>